<svg width="192" height="96" viewBox="0 0 192 96" fill="none" xmlns="http://www.w3.org/2000/svg">
<g clip-path="url(#clip0_2001_2)">
<path d="M129.5 73.5C136.956 73.5 143 67.4558 143 60V55.875C143 51.5332 139.467 48 135.125 48H122.5L110.875 36H78.25L70.75 48H44.125C39.7832 48 36.25 51.5332 36.25 55.875V60C36.25 67.4558 42.2942 73.5 49.75 73.5H53.5" stroke="#10B981" stroke-width="4" stroke-linecap="round"/>
<circle cx="63" cy="74" r="9" fill="hsl(var(--foreground))" stroke="hsl(var(--background))" stroke-width="4"/>
<circle cx="120" cy="74" r="9" fill="hsl(var(--foreground))" stroke="hsl(var(--background))" stroke-width="4"/>
<path d="M96.25 48L103.75 30" stroke="#10B981" stroke-width="4" stroke-linecap="round"/>
<path d="M89.854 36H78.25" stroke="#10B981" stroke-width="4" stroke-linecap="round"/>
<circle cx="102" cy="22" r="6" fill="#10B981" stroke="hsl(var(--background))" stroke-width="2"/>
<path d="M143 54L155.5 39" stroke="#10B981" stroke-width="4" stroke-linecap="round"/>
<circle cx="154" cy="31" r="6" fill="#10B981" stroke="hsl(var(--background))" stroke-width="2"/>
<path d="M148 37C149.105 35.8954 151 36 153 38" stroke="#10B981" stroke-width="2" stroke-linecap="round"/>
<path d="M106.5 28C107.605 26.8954 109.5 27 111.5 29" stroke="#10B981" stroke-width="2" stroke-linecap="round"/>
</g>
<defs>
<clipPath id="clip0_2001_2">
<rect width="192" height="96" fill="white"/>
</clipPath>
</defs>
</svg>
