<svg width="96" height="96" viewBox="0 0 96 96" fill="none" xmlns="http://www.w3.org/2000/svg">
<path d="M84 56H80V52C80 50.9391 79.5786 49.9217 78.8284 49.1716C78.0783 48.4214 77.0609 48 76 48H20C18.9391 48 17.9217 48.4214 17.1716 49.1716C16.4214 49.9217 16 50.9391 16 52V56H12C10.9391 56 9.92172 56.4214 9.17157 57.1716C8.42143 57.9217 8 58.9391 8 60V68H12V72C12 73.0609 12.4214 74.0783 13.1716 74.8284C13.9217 75.5786 14.9391 76 16 76H20V68H76V76H80C81.0609 76 82.0783 75.5786 82.8284 74.8284C83.5786 74.0783 84 73.0609 84 72V68H88V60C88 58.9391 87.5786 57.9217 86.8284 57.1716C86.0783 56.4214 85.0609 56 84 56Z" fill="#6EE7B7"/>
<path d="M76 48H36V40C36 38.9391 36.4214 37.9217 37.1716 37.1716C37.9217 36.4214 38.9391 36 40 36H72C73.0609 36 74.0783 36.4214 74.8284 37.1716C75.5786 37.9217 76 38.9391 76 40V48Z" fill="#6EE7B7"/>
<path d="M28 68H20V52C20 50.9391 20.4214 49.9217 21.1716 49.1716C21.9217 48.4214 22.9391 48 24 48H36V68H28Z" fill="#34D399"/>
<path d="M40 76H36V68H40V76Z" fill="#34D399"/>
<path d="M64 76H60V68H64V76Z" fill="#34D399"/>
<path d="M80 56H76V68H80V56Z" fill="#34D399"/>
<g filter="url(#filter0_d_101_2)">
<path d="M88 40C88 42.2091 86.2091 44 84 44C81.7909 44 80 42.2091 80 40C80 37.7909 81.7909 36 84 36C86.2091 36 88 37.7909 88 40Z" fill="#F472B6"/>
</g>
<g filter="url(#filter1_d_101_2)">
<path d="M80 32C80 34.2091 78.2091 36 76 36C73.7909 36 72 34.2091 72 32C72 29.7909 73.7909 28 76 28C78.2091 28 80 29.7909 80 32Z" fill="#FBBF24"/>
</g>
<defs>
<filter id="filter0_d_101_2" x="76" y="32" width="16" height="16" filterUnits="userSpaceOnUse" color-interpolation-filters="sRGB">
<feFlood flood-opacity="0" result="BackgroundImageFix"/>
<feColorMatrix in="SourceAlpha" type="matrix" values="0 0 0 0 0 0 0 0 0 0 0 0 0 0 0 0 0 0 127 0" result="hardAlpha"/>
<feOffset dy="0"/>
<feGaussianBlur stdDeviation="2"/>
<feComposite in2="hardAlpha" operator="out"/>
<feColorMatrix type="matrix" values="0 0 0 0 0.956863 0 0 0 0 0.447059 0 0 0 0 0.713726 0 0 0 0.5 0"/>
<feBlend mode="normal" in2="BackgroundImageFix" result="effect1_dropShadow_101_2"/>
<feBlend mode="normal" in="SourceGraphic" in2="effect1_dropShadow_101_2" result="shape"/>
</filter>
<filter id="filter1_d_101_2" x="68" y="24" width="16" height="16" filterUnits="userSpaceOnUse" color-interpolation-filters="sRGB">
<feFlood flood-opacity="0" result="BackgroundImageFix"/>
<feColorMatrix in="SourceAlpha" type="matrix" values="0 0 0 0 0 0 0 0 0 0 0 0 0 0 0 0 0 0 127 0" result="hardAlpha"/>
<feOffset dy="0"/>
<feGaussianBlur stdDeviation="2"/>
<feComposite in2="hardAlpha" operator="out"/>
<feColorMatrix type="matrix" values="0 0 0 0 0.984314 0 0 0 0 0.74902 0 0 0 0 0.141176 0 0 0 0.5 0"/>
<feBlend mode="normal" in2="BackgroundImageFix" result="effect1_dropShadow_101_2"/>
<feBlend mode="normal" in="SourceGraphic" in2="effect1_dropShadow_101_2" result="shape"/>
</filter>
</defs>
</svg>