<svg width="150" height="70" viewBox="0 0 150 70" fill="none" xmlns="http://www.w3.org/2000/svg">
<g clip-path="url(#clip0_105_2)">
<path d="M141.667 36.6667C141.667 38.8758 139.876 40.6667 137.667 40.6667H12.3333C10.1242 40.6667 8.33333 38.8758 8.33333 36.6667V17.3333C8.33333 15.1242 10.1242 13.3333 12.3333 13.3333H137.667C139.876 13.3333 141.667 15.1242 141.667 17.3333V36.6667Z" fill="#6EE7B7"/>
<path d="M8.33333 22.3333H141.667V31.6667H8.33333V22.3333Z" fill="#34D399"/>
<path fill-rule="evenodd" clip-rule="evenodd" d="M29.0833 13.3333H120.917C124.608 13.3333 127.583 16.3083 127.583 20V26.3333C127.583 29.025 125.292 31.6667 122.5 31.6667H27.5C24.7083 31.6667 22.4167 29.025 22.4167 26.3333V20C22.4167 16.3083 25.4 13.3333 29.0833 13.3333Z" fill="white"/>
<path d="M125 57C129.583 57 133.333 53.25 133.333 48.6667C133.333 44.0833 129.583 40.3333 125 40.3333C120.417 40.3333 116.667 44.0833 116.667 48.6667C116.667 53.25 120.417 57 125 57Z" fill="#4B5563"/>
<path d="M33.3333 57C37.9167 57 41.6667 53.25 41.6667 48.6667C41.6667 44.0833 37.9167 40.3333 33.3333 40.3333C28.75 40.3333 25 44.0833 25 48.6667C25 53.25 28.75 57 33.3333 57Z" fill="#4B5563"/>
<path d="M125 52.6667C127.381 52.6667 129.333 50.858 129.333 48.6667C129.333 46.4753 127.381 44.6667 125 44.6667C122.619 44.6667 120.667 46.4753 120.667 48.6667C120.667 50.858 122.619 52.6667 125 52.6667Z" fill="white"/>
<path d="M33.3333 52.6667C35.7144 52.6667 37.6667 50.858 37.6667 48.6667C37.6667 46.4753 35.7144 44.6667 33.3333 44.6667C30.9523 44.6667 29 46.4753 29 48.6667C29 50.858 30.9523 52.6667 33.3333 52.6667Z" fill="white"/>
<path d="M91.6667 40.6667H58.3333" stroke="#9CA3AF" stroke-width="3" stroke-linecap="round"/>
<path d="M4.33333 48.6667H12.6667" stroke="#FBBF24" stroke-width="3" stroke-linecap="round"/>
<path d="M137.333 48.6667H145.667" stroke="#FBBF24" stroke-width="3" stroke-linecap="round"/>
<path d="M136.75 31.6667C136.75 32.5834 137.5 33.3334 138.417 33.3334C139.333 33.3334 140.083 32.5834 140.083 31.6667C140.083 30.75 139.333 30.0001 138.417 30.0001C137.5 30.0001 136.75 30.75 136.75 31.6667Z" fill="#FBBF24"/>
<g filter="url(#filter0_d_105_2)">
<path d="M129.083 35C129.083 35.9167 129.833 36.6667 130.75 36.6667C131.667 36.6667 132.417 35.9167 132.417 35C132.417 34.0833 131.667 33.3333 130.75 33.3333C129.833 33.3333 129.083 34.0833 129.083 35Z" fill="#F472B6"/>
</g>
</g>
<defs>
<filter id="filter0_d_105_2" x="125.083" y="31.3333" width="11.3333" height="11.3333" filterUnits="userSpaceOnUse" color-interpolation-filters="sRGB">
<feFlood flood-opacity="0" result="BackgroundImageFix"/>
<feColorMatrix in="SourceAlpha" type="matrix" values="0 0 0 0 0 0 0 0 0 0 0 0 0 0 0 0 0 0 127 0" result="hardAlpha"/>
<feOffset dy="2"/>
<feGaussianBlur stdDeviation="2"/>
<feComposite in2="hardAlpha" operator="out"/>
<feColorMatrix type="matrix" values="0 0 0 0 0.956863 0 0 0 0 0.262745 0 0 0 0 0.596078 0 0 0 0.5 0"/>
<feBlend mode="normal" in2="BackgroundImageFix" result="effect1_dropShadow_105_2"/>
<feBlend mode="normal" in="SourceGraphic" in2="effect1_dropShadow_105_2" result="shape"/>
</filter>
<clipPath id="clip0_105_2">
<rect width="150" height="70" fill="white"/>
</clipPath>
</defs>
</svg>