<svg xmlns="http://www.w3.org/2000/svg" width="24" height="24" viewBox="0 0 24 24" fill="none" stroke="currentColor" stroke-width="2" stroke-linecap="round" stroke-linejoin="round" class="lucide lucide-car"><path d="M19 17h2c.6 0 1-.4 1-1v-3c0-.9-.7-1.7-1.5-1.9C20.7 10.6 20 10 20 9V7c0-1.1-.9-2-2-2h-1"/><path d="M3 16v-3c0-.9.7-1.7 1.5-1.9C5.3 10.6 6 10 6 9V7c0-1.1.9-2 2-2h3"/><path d="M3 16h18"/><path d="M5 11h1"/><path d="m19 11-3-4"/><path d="M4 11l4-4"/><circle cx="7.5" cy="17.5" r="2.5"/><circle cx="16.5" cy="17.5" r="2.5"/></svg>
